<svg id="Layer_1" data-name="Layer 1" xmlns="http://www.w3.org/2000/svg" viewBox="0 0 569.57 760.43"><defs><style>.cls-1{fill:#133d76;}</style></defs><title>vda-logo-transparent</title><g id="Layer1"><path class="cls-1" d="M965.29,107.5c-0.69,0-305.88-.37-306.56-0.32-28.89,1.75-52,40.43-52,87.89V778.31c0,47.24,22.87,85.78,51.58,87.86q1.22,0.09,2.45.09l304.48,1.34c116.56,0,211.05-170.12,211.07-380S1081.85,106.84,965.29,107.5ZM866.46,807.29c-94.6,0-171.3-79.47-171.3-177.5s76.69-177.5,171.3-177.5a165.55,165.55,0,0,1,56.57,10c0.4,79.25,51.86,133.48,111.48,133.15a184.22,184.22,0,0,1,3.24,34.39C1037.75,727.82,961.05,807.29,866.46,807.29Z" transform="translate(-606.74 -107.17)"/></g></svg>